<?xml version="1.0" encoding="UTF-8" standalone="no"?><svg xmlns="http://www.w3.org/2000/svg" xmlns:xlink="http://www.w3.org/1999/xlink" clip-rule="evenodd" stroke-miterlimit="10" viewBox="0 0 91 82"><desc>SVG generated by Keynote</desc><defs></defs><g transform="matrix(1.00, 0.00, -0.00, -1.00, 0.0, 82.0)"><g><clipPath id="clip0x600000eb73a0"><path d="M 0.2 0.9 L 90.7 0.9 L 90.7 81.8 L 0.2 81.8 Z M 0.2 0.9 "></path></clipPath><g clip-path="url(#clip0x600000eb73a0)"><image xlink:href="50180E18151F83CA1C78CE38A50AED29.png" width="88.00" height="79.00" transform="matrix(1.01, 0.00, -0.00, -1.00, 1.2, 80.8)" opacity="0.50"></image><path d="M -0.2 53.2 L -0.2 11.0 C -0.2 4.9 4.9 -0.3 11.0 -0.3 L 62.4 -0.3 C 68.5 -0.3 73.8 4.9 73.8 11.0 L 73.8 52.9 C 73.8 59.0 68.5 63.7 62.4 63.7 L 11.0 63.7 C 4.9 63.7 -0.2 59.3 -0.2 53.2 Z M 0.0 52.9 " fill="none" stroke="#000000" stroke-width="3.00" transform="matrix(1.00, 0.00, 0.00, -1.00, 8.7, 77.2)"></path></g></g><g><clipPath id="clip0x6000008bce60"><path d="M 13.7 27.1 L 77.3 27.1 L 77.3 55.6 L 13.7 55.6 Z M 13.7 27.1 "></path></clipPath><g clip-path="url(#clip0x6000008bce60)"><image xlink:href="604540D82859B21A08EE720545989021.png" width="62.00" height="27.00" transform="matrix(0.99, 0.00, -0.00, -0.98, 14.7, 54.6)" opacity="0.50"></image><path d="M -0.1 0.2 L 35.1 0.2 L 35.9 0.2 " fill="none" stroke="#000000" stroke-width="2.00" transform="matrix(1.00, 0.00, 0.00, -1.00, 23.1, 45.2)"></path><path d="M 58.0 40.2 L 67.6 45.0 L 58.0 49.8 Z M 58.0 40.2 " fill="#000000"></path></g></g></g></svg>