<?xml version="1.0" encoding="UTF-8" standalone="no"?><svg xmlns="http://www.w3.org/2000/svg" xmlns:xlink="http://www.w3.org/1999/xlink" clip-rule="evenodd" stroke-miterlimit="10" viewBox="0 0 92 83"><desc>SVG generated by Keynote</desc><defs></defs><g transform="matrix(1.00, 0.00, -0.00, -1.00, 0.0, 83.0)"><g><clipPath id="clip0x600000ea8040"><path d="M 0.5 0.5 L 91.8 0.5 L 91.8 82.2 L 0.5 82.2 Z M 0.5 0.5 "></path></clipPath><g clip-path="url(#clip0x600000ea8040)"><image xlink:href="FA697E841BFE975A0A8C23F910C00630.png" width="89.00" height="80.00" transform="matrix(1.00, 0.00, -0.00, -1.00, 1.5, 81.2)" opacity="0.50"></image><path d="M 0.1 53.2 L 0.1 11.0 C 0.1 4.9 4.9 -0.3 11.0 -0.3 L 62.4 -0.3 C 68.5 -0.3 73.1 4.9 73.1 11.0 L 73.1 52.9 C 73.1 59.0 68.5 63.7 62.4 63.7 L 11.0 63.7 C 4.9 63.7 0.1 59.3 0.1 53.2 Z M 0.0 52.9 " fill="none" stroke="#000000" stroke-width="3.00" transform="matrix(1.00, 0.00, 0.00, -1.00, 9.4, 77.2)"></path></g></g><g><clipPath id="clip0x608000cacba0"><path d="M 77.5 27.5 L 14.8 27.5 L 14.8 55.1 L 77.5 55.1 Z M 77.5 27.5 "></path></clipPath><g clip-path="url(#clip0x608000cacba0)"><image xlink:href="789C24D6F12C60A80B1F38C57BAC2545.png" width="61.00" height="26.00" transform="matrix(-0.99, 0.00, 0.00, 0.98, 76.5, 28.5)" opacity="0.50"></image><path d="M -0.5 -0.2 L 35.1 -0.2 L 36.5 -0.2 " fill="none" stroke="#000000" stroke-width="2.00" transform="matrix(-1.00, 0.00, 0.00, 1.00, 68.5, 45.2)"></path><path d="M 33.0 49.8 L 23.4 45.0 L 33.0 40.2 Z M 33.0 49.8 " fill="#000000"></path></g></g></g></svg>