<?xml version="1.0" encoding="UTF-8" standalone="no"?><svg xmlns="http://www.w3.org/2000/svg" xmlns:xlink="http://www.w3.org/1999/xlink" clip-rule="evenodd" stroke-miterlimit="10" viewBox="0 0 349 349"><desc>SVG generated by Keynote</desc><defs></defs><g transform="matrix(1.00, 0.00, -0.00, -1.00, 0.0, 349.0)"><g><clipPath id="clip0x608000cb1460"><path d="M 2.0 2.0 L 347.0 2.0 L 347.0 347.0 L 2.0 347.0 Z M 2.0 2.0 "></path></clipPath><g clip-path="url(#clip0x608000cb1460)"><path d="M 291.3 246.1 C 279.3 258.1 258.0 248.6 250.0 236.3 C 250.0 236.3 283.4 238.7 283.4 205.5 C 297.6 219.7 306.2 231.2 291.3 246.1 Z M 291.3 246.1 " fill="#000000"></path><path d="M 266.1 225.4 L 169.1 131.9 L 179.7 124.6 L 182.2 113.5 L 176.0 106.8 L 165.8 103.5 L 151.1 118.2 L 152.9 126.2 L 255.9 229.2 C 252.6 229.9 248.9 230.3 244.7 230.3 L 148.0 133.6 L 138.0 96.8 C 137.4 97.3 136.7 97.6 135.9 97.6 C 135.9 97.6 135.9 97.6 135.9 97.6 C 74.2 97.4 56.1 110.4 55.1 118.2 C 54.1 125.8 66.7 136.8 97.0 144.6 C 113.2 148.7 120.2 153.3 119.9 159.6 C 119.2 173.9 66.6 183.6 44.0 187.1 C 42.1 187.3 40.3 186.0 40.0 184.1 C 39.7 182.2 41.0 180.3 42.9 180.0 C 79.2 174.4 112.5 164.5 112.8 159.2 C 112.8 159.2 111.9 155.7 95.2 151.5 C 64.0 143.5 46.3 130.7 48.0 117.3 C 50.2 100.4 82.2 90.5 133.9 90.5 C 134.6 90.5 135.2 90.5 135.9 90.5 C 136.0 90.5 136.2 90.5 136.3 90.5 L 136.3 90.5 L 136.8 90.7 C 137.0 90.7 137.1 90.7 137.3 90.8 L 179.4 101.0 L 277.3 198.9 C 277.3 198.9 280.7 216.5 266.1 225.4 Z M 266.1 225.4 " fill="#000000"></path></g></g></g></svg>