<?xml version="1.0" encoding="UTF-8" standalone="no"?><svg xmlns="http://www.w3.org/2000/svg" xmlns:xlink="http://www.w3.org/1999/xlink" clip-rule="evenodd" stroke-miterlimit="10" viewBox="0 0 446 460"><desc>SVG generated by Keynote</desc><defs></defs><g transform="matrix(1.00, 0.00, -0.00, -1.00, 0.0, 460.0)"><g><clipPath id="clip0x6000010a16e0"><path d="M 0.7 223.4 L 315.7 223.4 L 315.7 459.7 L 0.7 459.7 Z M 0.7 223.4 "></path></clipPath><g clip-path="url(#clip0x6000010a16e0)"><image xlink:href="../../5070B4CD-DCFA-4E67-849A-22A0E948A9A2/assets/1E8F94D2C377EC6CDB496DD8DCF41816.jpeg" width="400.00" height="300.00" transform="matrix(0.79, 0.00, -0.00, -0.79, 1.0, 460.0)"></image></g></g><g><clipPath id="clip0x6000010a1380"><path d="M 21.3 0.1 L 415.9 0.1 L 415.9 229.5 L 21.3 229.5 Z M 21.3 0.1 "></path></clipPath><g clip-path="url(#clip0x6000010a1380)"><image xlink:href="../../5070B4CD-DCFA-4E67-849A-22A0E948A9A2/assets/AA2BE342E4BE37E8EFABCB9EDD7422F4.jpeg" width="607.00" height="353.00" transform="matrix(0.65, 0.00, -0.00, -0.65, 21.0, 230.0)"></image></g></g><g><clipPath id="clip0x6080010bede0"><path d="M 230.7 206.0 L 445.8 206.0 L 445.8 349.5 L 230.7 349.5 Z M 230.7 206.0 "></path></clipPath><g clip-path="url(#clip0x6080010bede0)"><image xlink:href="../../5070B4CD-DCFA-4E67-849A-22A0E948A9A2/assets/F148C5D84E599F089414CFFB4D57D025.jpeg" width="691.00" height="461.00" transform="matrix(0.31, 0.00, -0.00, -0.31, 231.0, 349.0)"></image></g></g></g></svg>